<svg id="visual" viewBox="0 0 960 540" width="960" height="540" xmlns="http://www.w3.org/2000/svg" xmlns:xlink="http://www.w3.org/1999/xlink" version="1.1"><rect x="0" y="0" width="960" height="540" fill="#FFFFFF"></rect><path d="M0 399L16 405.5C32 412 64 425 96 419.3C128 413.7 160 389.3 192 389.3C224 389.3 256 413.7 288 414C320 414.3 352 390.7 384 386C416 381.3 448 395.7 480 398.2C512 400.7 544 391.3 576 379.3C608 367.3 640 352.7 672 364.7C704 376.7 736 415.3 768 429.2C800 443 832 432 864 433.5C896 435 928 449 944 456L960 463L960 541L944 541C928 541 896 541 864 541C832 541 800 541 768 541C736 541 704 541 672 541C640 541 608 541 576 541C544 541 512 541 480 541C448 541 416 541 384 541C352 541 320 541 288 541C256 541 224 541 192 541C160 541 128 541 96 541C64 541 32 541 16 541L0 541Z" fill="#082a5c" stroke-linecap="round" stroke-linejoin="miter"></path></svg>