<svg id="visual" viewBox="0 0 960 540" width="960" height="540" xmlns="http://www.w3.org/2000/svg" xmlns:xlink="http://www.w3.org/1999/xlink" version="1.1"><path d="M0 55L14.5 66.7C29 78.3 58 101.7 87.2 115.2C116.3 128.7 145.7 132.3 174.8 132.3C204 132.3 233 128.7 262 117C291 105.3 320 85.7 349 78.5C378 71.3 407 76.7 436.2 79.3C465.3 82 494.7 82 523.8 86.5C553 91 582 100 611 109.8C640 119.7 669 130.3 698 132.2C727 134 756 127 785.2 115.3C814.3 103.7 843.7 87.3 872.8 88.2C902 89 931 107 945.5 116L960 125L960 0L945.5 0C931 0 902 0 872.8 0C843.7 0 814.3 0 785.2 0C756 0 727 0 698 0C669 0 640 0 611 0C582 0 553 0 523.8 0C494.7 0 465.3 0 436.2 0C407 0 378 0 349 0C320 0 291 0 262 0C233 0 204 0 174.8 0C145.7 0 116.3 0 87.2 0C58 0 29 0 14.5 0L0 0Z" fill="#335eb2"></path><path d="M0 131L14.5 144.5C29 158 58 185 87.2 194C116.3 203 145.7 194 174.8 186.7C204 179.3 233 173.7 262 165.5C291 157.3 320 146.7 349 147.7C378 148.7 407 161.3 436.2 170.3C465.3 179.3 494.7 184.7 523.8 182C553 179.3 582 168.7 611 168.7C640 168.7 669 179.3 698 180.2C727 181 756 172 785.2 169.3C814.3 166.7 843.7 170.3 872.8 172.2C902 174 931 174 945.5 174L960 174L960 123L945.5 114C931 105 902 87 872.8 86.2C843.7 85.3 814.3 101.7 785.2 113.3C756 125 727 132 698 130.2C669 128.3 640 117.7 611 107.8C582 98 553 89 523.8 84.5C494.7 80 465.3 80 436.2 77.3C407 74.7 378 69.3 349 76.5C320 83.7 291 103.3 262 115C233 126.7 204 130.3 174.8 130.3C145.7 130.3 116.3 126.7 87.2 113.2C58 99.7 29 76.3 14.5 64.7L0 53Z" fill="#204c9f"></path><path d="M0 222L14.5 240C29 258 58 294 87.2 322.8C116.3 351.7 145.7 373.3 174.8 377.8C204 382.3 233 369.7 262 362.5C291 355.3 320 353.7 349 334C378 314.3 407 276.7 436.2 283.8C465.3 291 494.7 343 523.8 345.7C553 348.3 582 301.7 611 294.5C640 287.3 669 319.7 698 319.7C727 319.7 756 287.3 785.2 273.8C814.3 260.3 843.7 265.7 872.8 268.3C902 271 931 271 945.5 271L960 271L960 172L945.5 172C931 172 902 172 872.8 170.2C843.7 168.3 814.3 164.7 785.2 167.3C756 170 727 179 698 178.2C669 177.3 640 166.7 611 166.7C582 166.7 553 177.3 523.8 180C494.7 182.7 465.3 177.3 436.2 168.3C407 159.3 378 146.7 349 145.7C320 144.7 291 155.3 262 163.5C233 171.7 204 177.3 174.8 184.7C145.7 192 116.3 201 87.2 192C58 183 29 156 14.5 142.5L0 129Z" fill="#033a8d"></path><path d="M0 309L14.5 326C29 343 58 377 87.2 401.3C116.3 425.7 145.7 440.3 174.8 444C204 447.7 233 440.3 262 434.8C291 429.3 320 425.7 349 408.5C378 391.3 407 360.7 436.2 365.2C465.3 369.7 494.7 409.3 523.8 402.2C553 395 582 341 611 331.2C640 321.3 669 355.7 698 361.2C727 366.7 756 343.3 785.2 336.2C814.3 329 843.7 338 872.8 343.3C902 348.7 931 350.3 945.5 351.2L960 352L960 269L945.5 269C931 269 902 269 872.8 266.3C843.7 263.7 814.3 258.3 785.2 271.8C756 285.3 727 317.7 698 317.7C669 317.7 640 285.3 611 292.5C582 299.7 553 346.3 523.8 343.7C494.7 341 465.3 289 436.2 281.8C407 274.7 378 312.3 349 332C320 351.7 291 353.3 262 360.5C233 367.7 204 380.3 174.8 375.8C145.7 371.3 116.3 349.7 87.2 320.8C58 292 29 256 14.5 238L0 220Z" fill="#00337a"></path><path d="M0 541L14.5 541C29 541 58 541 87.2 541C116.3 541 145.7 541 174.8 541C204 541 233 541 262 541C291 541 320 541 349 541C378 541 407 541 436.2 541C465.3 541 494.7 541 523.8 541C553 541 582 541 611 541C640 541 669 541 698 541C727 541 756 541 785.2 541C814.3 541 843.7 541 872.8 541C902 541 931 541 945.5 541L960 541L960 350L945.5 349.2C931 348.3 902 346.7 872.8 341.3C843.7 336 814.3 327 785.2 334.2C756 341.3 727 364.7 698 359.2C669 353.7 640 319.3 611 329.2C582 339 553 393 523.8 400.2C494.7 407.3 465.3 367.7 436.2 363.2C407 358.7 378 389.3 349 406.5C320 423.7 291 427.3 262 432.8C233 438.3 204 445.7 174.8 442C145.7 438.3 116.3 423.7 87.2 399.3C58 375 29 341 14.5 324L0 307Z" fill="#002c68"></path></svg>